<svg 
  width="900" 
  height="900" 
  viewBox="0 0 900 900" 
  fill="white" 
  xmlns="http://www.w3.org/2000/svg"
>
  <path 
    fill-rule="evenodd" 
    clip-rule="evenodd"
    d="M675 140.625H450C427.622 140.625 406.161 149.514 390.338 165.338C374.514 181.161 365.625 202.622 365.625 225V281.25H450C494.755 281.25 537.678 299.029 569.324 330.676C600.971 362.322 618.75 405.245 618.75 450V534.375H675C697.378 534.375 718.839 525.486 734.662 509.662C750.486 493.839 759.375 472.378 759.375 450V225C759.375 202.622 750.486 181.161 734.662 165.338C718.839 149.514 697.378 140.625 675 140.625ZM618.75 618.75H675C719.755 618.75 762.678 600.971 794.324 569.324C825.971 537.678 843.75 494.755 843.75 450V225C843.75 180.245 825.971 137.322 794.324 105.676C762.678 74.029 719.755 56.25 675 56.25H450C405.245 56.25 362.322 74.029 330.676 105.676C299.029 137.322 281.25 180.245 281.25 225V281.25H225C180.245 281.25 137.322 299.029 105.676 330.676C74.029 362.322 56.25 405.245 56.25 450V675C56.25 719.755 74.029 762.678 105.676 794.324C137.322 825.971 180.245 843.75 225 843.75H450C494.755 843.75 537.678 825.971 569.324 794.324C600.971 762.678 618.75 719.755 618.75 675V618.75ZM225 365.625H450C472.378 365.625 493.839 374.514 509.662 390.338C525.486 406.161 534.375 427.622 534.375 450V675C534.375 697.378 525.486 718.839 509.662 734.662C493.839 750.486 472.378 759.375 450 759.375H225C202.622 759.375 181.161 750.486 165.338 734.662C149.514 718.839 140.625 697.378 140.625 675V450C140.625 427.622 149.514 406.161 165.338 390.338C181.161 374.514 202.622 365.625 225 365.625Z"
    fill="black" 
  />
</svg>